<svg width="144" height="122" viewBox="0 0 144 122" fill="none" xmlns="http://www.w3.org/2000/svg">
<path d="M63.1417 43.1405H25.4855V51.4069H24.6653V35.3521C24.6653 31.8103 27.5626 28.9291 31.1241 28.9291H46.9862C49.7776 28.9291 52.396 30.1583 54.1699 32.3015L55.946 34.4474L56.6212 35.263L57.2965 36.0787H36.2179C33.9333 36.0787 32.0813 37.9203 32.0813 40.1923V41.5092H61.7913L62.4665 42.3249L63.1417 43.1405Z" fill="#DDDDDD"/>
<path d="M82.4109 36.0787L77.5859 40.399C76.7865 41.1151 75.7535 41.5092 74.6774 41.5092H32.0813V40.1923C32.0813 37.9203 33.9332 36.0787 36.2178 36.0787H82.4109Z" fill="#007AFF"/>
<path d="M36.218 35.263C33.4851 35.263 31.2612 37.4741 31.2612 40.1923V43.1405H74.6776C76.1571 43.1405 77.5842 42.5956 78.6838 41.6111L84.8624 36.0787L85.7735 35.263H36.218ZM82.4111 36.0787L81.1289 37.2268L77.586 40.399C76.7866 41.1151 75.7536 41.5092 74.6776 41.5092H32.0814V40.1923C32.0814 37.9203 33.9334 36.0787 36.218 36.0787H82.4111Z" fill="#007AFF"/>
<path d="M110.605 34.4147C110.262 32.0908 108.663 30.1671 106.518 29.3506C105.802 29.0785 105.026 28.9291 104.215 28.9291H93.8505C92.4131 28.9291 91.0334 29.4555 89.9649 30.4123L85.4586 34.4474L84.5475 35.263L84.1764 35.5955L83.6369 36.0787L82.3547 37.2268L78.1348 41.0053C77.1842 41.8562 75.9566 42.3249 74.6775 42.3249H24.6653V82.1269C24.6653 82.6887 24.738 83.234 24.875 83.7539C24.9348 83.9805 25.0067 84.2018 25.09 84.4179C25.1716 84.6304 25.2647 84.8376 25.368 85.0386C25.9501 86.1726 26.8617 87.1131 27.9763 87.7343C28.6471 88.1082 29.391 88.3665 30.1816 88.4816C30.4892 88.5266 30.804 88.5499 31.1241 88.5499H104.215C105.357 88.5499 106.431 88.2537 107.363 87.7343C108.489 87.1065 109.408 86.1528 109.99 85.0025C110.188 84.611 110.347 84.197 110.461 83.7649C110.6 83.242 110.674 82.6926 110.674 82.1269V35.3521C110.674 35.0338 110.651 34.7207 110.605 34.4147ZM104.215 87.7343H31.1241C29.8614 87.7343 28.6959 87.3216 27.7559 86.6245C26.378 85.6021 25.4855 83.9681 25.4855 82.1269V43.1405H74.6775C76.157 43.1405 77.5841 42.5956 78.6837 41.6111L84.8623 36.0787L86.6845 34.4474L90.5138 31.0185C91.4298 30.1984 92.6184 29.7447 93.8505 29.7447H104.215C106.067 29.7447 107.71 30.6323 108.738 32.0026C109.439 32.9373 109.854 34.0964 109.854 35.3521V82.1269C109.854 85.2238 107.33 87.7343 104.215 87.7343Z" fill="white"/>
<path d="M109.854 35.3521V82.1269C109.854 85.2238 107.33 87.7343 104.215 87.7343H31.1242C28.0101 87.7343 25.4856 85.2238 25.4856 82.1269V43.1405H74.6776C76.1571 43.1405 77.5842 42.5956 78.6838 41.6111L84.8624 36.0787L86.6846 34.4474L90.5139 31.0185C91.4299 30.1984 92.6185 29.7447 93.8506 29.7447H104.215C107.33 29.7447 109.854 32.2552 109.854 35.3521Z" fill="white"/>
<g style="mix-blend-mode:multiply">
<path d="M112.076 33.682C111.709 32.82 111.185 32.0458 110.517 31.3814C110.323 31.1887 110.12 31.0084 109.908 30.8408C109.39 30.4281 108.819 30.09 108.204 29.8312C107.66 29.6023 107.096 29.4418 106.518 29.3506C106.14 29.2915 105.757 29.2615 105.37 29.2615H95.005C93.3645 29.2615 91.7897 29.8625 90.5705 30.9541L86.6694 34.4474L85.7583 35.263L85.3872 35.5955H58.1627L57.8874 35.263L57.2126 34.4474L55.9575 32.9311C55.5797 32.4743 55.1594 32.0506 54.705 31.6666C54.0244 31.0904 53.2676 30.6027 52.4629 30.2249C51.7008 29.8669 50.8894 29.605 50.0586 29.4454C49.4259 29.3237 48.7822 29.2615 48.1406 29.2615H32.2786C31.2965 29.2615 30.3433 29.4529 29.4446 29.8312C28.5779 30.1958 27.7998 30.7174 27.1316 31.3818C26.4635 32.0458 25.939 32.82 25.5723 33.682C25.1924 34.5757 24.9995 35.5236 24.9995 36.5002V83.2751C24.9995 83.4501 25.0057 83.6238 25.0181 83.7971C25.0332 84.0056 25.0567 84.2124 25.09 84.4179C25.1299 84.6696 25.1831 84.9187 25.2505 85.1652C25.336 85.48 25.4433 85.7899 25.5723 86.0933C25.8237 86.6836 26.1487 87.233 26.5437 87.7343C26.5575 87.7515 26.5712 87.7691 26.5858 87.7863C26.7548 87.9979 26.937 88.2003 27.1316 88.3934C27.5027 88.7625 27.9075 89.087 28.3424 89.3656H109.306C109.741 89.087 110.146 88.7625 110.517 88.3934C110.727 88.1844 110.923 87.9644 111.105 87.7343C111.5 87.233 111.825 86.6836 112.076 86.0933C112.177 85.8556 112.265 85.6136 112.339 85.3684C112.501 84.8389 112.599 84.2935 112.634 83.7371C112.644 83.5837 112.649 83.4298 112.649 83.2751V36.5002C112.649 35.5236 112.456 34.5757 112.076 33.682ZM26.6399 36.5002C26.6399 33.4033 29.1644 30.8928 32.2786 30.8928H48.1406C50.1251 30.8928 52.0284 31.5837 53.5345 32.8169C53.953 33.1595 54.341 33.5444 54.6912 33.9677L55.0885 34.4474L55.7633 35.263L56.0386 35.5955H37.3723C35.8294 35.5955 34.3788 36.1929 33.2877 37.2784C32.1966 38.3634 31.5954 39.806 31.5954 41.3404V42.6573H26.6399V36.5002ZM83.5654 37.2268L78.7403 41.5471C77.941 42.2632 76.9079 42.6573 75.8319 42.6573H33.2358V41.3404C33.2358 39.0684 35.0877 37.2268 37.3723 37.2268H83.5654ZM32.2786 88.8824C31.5373 88.8824 30.8297 88.7404 30.1815 88.4816C29.7053 88.292 29.2615 88.0394 28.8598 87.7343C28.4422 87.4173 28.0702 87.0438 27.7559 86.6245C27.0549 85.6898 26.6399 84.5307 26.6399 83.2751V44.2886H75.8319C77.3114 44.2886 78.7386 43.7437 79.8381 42.7592L86.0167 37.2268L87.8389 35.5955L91.6682 32.1666C92.5842 31.3465 93.7729 30.8928 95.005 30.8928H105.37C106.632 30.8928 107.798 31.3055 108.738 32.0026C109.564 32.6159 110.216 33.4487 110.605 34.4147C110.866 35.0593 111.008 35.763 111.008 36.5002V83.2751C111.008 83.4307 111.002 83.5846 110.989 83.7371C110.943 84.3085 110.81 84.8557 110.604 85.3653C110.222 86.3093 109.59 87.1263 108.789 87.7343C107.84 88.4547 106.655 88.8824 105.37 88.8824H32.2786Z" fill="#DDDDDD"/>
</g>
<path d="M57.0082 34.4474L54.8029 31.783C53.8595 30.6428 52.6509 29.7073 51.3084 29.0768C49.9654 28.4463 48.4709 28.1134 46.9861 28.1134H31.124C30.142 28.1134 29.1888 28.3048 28.2901 28.6831C27.4233 29.0477 26.6452 29.5693 25.9771 30.2337C25.3089 30.8977 24.7844 31.6719 24.4178 32.5339C24.0378 33.4276 23.845 34.3755 23.845 35.3521V52.2226H25.4854V35.3521C25.4854 32.2552 28.0099 29.7447 31.124 29.7447H46.9861C49.5221 29.7447 51.9251 30.8726 53.5367 32.8196L54.8841 34.4474L55.5593 35.263L56.2341 36.0787H58.3587L57.0082 34.4474Z" fill="#333333"/>
<path d="M36.2179 34.4474C34.675 34.4474 33.2243 35.0448 32.1332 36.1303C31.0421 37.2153 30.4409 38.6579 30.4409 40.1923V43.1405H32.0813V40.1923C32.0813 37.9203 33.9333 36.0787 36.2179 36.0787H84.8623L86.6845 34.4474H36.2179Z" fill="#333333"/>
<path d="M110.921 32.5339C110.662 31.9228 110.323 31.3558 109.908 30.8408C109.739 30.6292 109.557 30.4264 109.362 30.2333C108.694 29.5693 107.916 29.0477 107.049 28.6831C106.151 28.3048 105.197 28.1134 104.215 28.1134H93.8504C92.21 28.1134 90.6352 28.7144 89.4159 29.806L84.2326 34.4474L83.3215 35.263L82.9504 35.5955L82.4109 36.0787L81.1287 37.2268L77.5858 40.399C76.7864 41.1151 75.7534 41.5092 74.6774 41.5092H23.845V82.1269C23.845 82.6741 23.9057 83.2124 24.0259 83.7371C24.1199 84.1489 24.2506 84.5523 24.4178 84.9452C24.479 85.0889 24.5441 85.23 24.6142 85.3684C24.9631 86.062 25.4202 86.692 25.9771 87.2453C26.1509 87.4182 26.3322 87.5813 26.5206 87.7343C26.5424 87.7524 26.5636 87.7696 26.5858 87.7863C27.1041 88.199 27.6747 88.5372 28.2905 88.7964C29.1888 89.1743 30.142 89.3656 31.124 89.3656H104.215C105.197 89.3656 106.151 89.1743 107.049 88.7964C107.69 88.5261 108.283 88.1703 108.819 87.7343C109.007 87.5813 109.188 87.4182 109.362 87.2453C109.919 86.692 110.376 86.062 110.725 85.3684C110.795 85.23 110.86 85.0889 110.921 84.9452C111.089 84.5523 111.219 84.1489 111.313 83.7371C111.434 83.2124 111.494 82.6741 111.494 82.1269V35.3521C111.494 34.3755 111.301 33.4276 110.921 32.5339ZM27.7558 86.6245C26.3779 85.6021 25.4854 83.9681 25.4854 82.1269V43.1405H74.6774C76.1569 43.1405 77.584 42.5956 78.6836 41.6111L84.8622 36.0787L86.6844 34.4474L90.5137 31.0185C91.4297 30.1984 92.6183 29.7447 93.8504 29.7447H104.215C106.067 29.7447 107.71 30.6323 108.738 32.0026C109.439 32.9373 109.854 34.0964 109.854 35.3521V82.1269C109.854 85.2238 107.329 87.7343 104.215 87.7343H31.124C29.8613 87.7343 28.6958 87.3216 27.7558 86.6245Z" fill="#333333"/>
<path d="M126.506 88.55C126.506 89.0006 126.138 89.3656 125.686 89.3656H9.69741C9.24474 89.3656 8.8772 89.0006 8.8772 88.55C8.8772 88.0994 9.24474 87.7343 9.69741 87.7343H125.686C126.138 87.7343 126.506 88.0994 126.506 88.55Z" fill="#333333"/>
<path d="M6.31377 89.3656H2.57803C2.12491 89.3656 1.75781 89.0006 1.75781 88.55C1.75781 88.0994 2.12491 87.7343 2.57803 87.7343H6.31377C6.76688 87.7343 7.13398 88.0994 7.13398 88.55C7.13398 89.0006 6.76688 89.3656 6.31377 89.3656Z" fill="#333333"/>
<path d="M24.7093 85.3684H20.9735C20.5204 85.3684 20.1533 85.0034 20.1533 84.5528C20.1533 84.1022 20.5204 83.7371 20.9735 83.7371H24.7093C25.1624 83.7371 25.5295 84.1022 25.5295 84.5528C25.5295 85.0034 25.1624 85.3684 24.7093 85.3684Z" fill="#333333"/>
<path d="M17.5896 85.3684H13.8539C13.4008 85.3684 13.0337 85.0034 13.0337 84.5528C13.0337 84.1022 13.4008 83.7371 13.8539 83.7371H17.5896C18.0428 83.7371 18.4099 84.1022 18.4099 84.5528C18.4099 85.0034 18.0428 85.3684 17.5896 85.3684Z" fill="#333333"/>
<path d="M114.41 85.3684H110.674C110.221 85.3684 109.854 85.0034 109.854 84.5528C109.854 84.1022 110.221 83.7371 110.674 83.7371H114.41C114.863 83.7371 115.23 84.1022 115.23 84.5528C115.23 85.0034 114.863 85.3684 114.41 85.3684Z" fill="#333333"/>
<path d="M121.529 85.3684H117.794C117.341 85.3684 116.974 85.0034 116.974 84.5528C116.974 84.1022 117.341 83.7371 117.794 83.7371H121.529C121.982 83.7371 122.35 84.1022 122.35 84.5528C122.35 85.0034 121.982 85.3684 121.529 85.3684Z" fill="#333333"/>
<path d="M132.805 89.3656H129.07C128.617 89.3656 128.25 89.0006 128.25 88.55C128.25 88.0994 128.617 87.7343 129.07 87.7343H132.805C133.258 87.7343 133.625 88.0994 133.625 88.55C133.625 89.0006 133.258 89.3656 132.805 89.3656Z" fill="#333333"/>
<path d="M140.127 98.5843L139.309 99.3978C138.989 99.7157 138.989 100.231 139.309 100.549C139.629 100.867 140.147 100.867 140.467 100.549L141.285 99.7355L142.103 100.549C142.422 100.867 142.941 100.867 143.26 100.549C143.58 100.231 143.58 99.7157 143.26 99.3978L142.442 98.5843L143.26 97.7709C143.58 97.453 143.58 96.9376 143.26 96.6197C143.1 96.4605 142.891 96.3812 142.681 96.3812C142.471 96.3812 142.262 96.4605 142.102 96.6197L141.284 97.4332L140.466 96.6197C140.306 96.4605 140.097 96.3812 139.887 96.3812C139.677 96.3812 139.468 96.4605 139.308 96.6197C138.988 96.9376 138.988 97.453 139.308 97.7709L140.126 98.5843H140.127Z" fill="white"/>
<path d="M23.2461 116.11L22.4281 116.923C22.1085 117.241 22.1085 117.756 22.4281 118.074C22.7478 118.392 23.2661 118.392 23.5857 118.074L24.4037 117.261L25.2217 118.074C25.5414 118.392 26.0597 118.392 26.3793 118.074C26.699 117.756 26.699 117.241 26.3793 116.923L25.5613 116.11L26.3793 115.296C26.699 114.978 26.699 114.463 26.3793 114.145C26.2193 113.986 26.01 113.906 25.8003 113.906C25.5906 113.906 25.3813 113.986 25.2213 114.145L24.4033 114.958L23.5853 114.145C23.4252 113.986 23.216 113.906 23.0063 113.906C22.7966 113.906 22.5873 113.986 22.4272 114.145C22.1076 114.463 22.1076 114.978 22.4272 115.296L23.2452 116.11H23.2461Z" fill="white"/>
<path d="M2.31693 44.0078L1.49893 44.8212C1.17927 45.1391 1.17927 45.6545 1.49893 45.9724C1.8186 46.2903 2.33688 46.2903 2.65654 45.9724L3.47454 45.159L4.29254 45.9724C4.6122 46.2903 5.13048 46.2903 5.45015 45.9724C5.76981 45.6545 5.76981 45.1391 5.45015 44.8212L4.63215 44.0078L5.45015 43.1943C5.76981 42.8764 5.76981 42.361 5.45015 42.0431C5.29009 41.884 5.08083 41.8046 4.87112 41.8046C4.66141 41.8046 4.45215 41.884 4.29209 42.0431L3.4741 42.8566L2.6561 42.0431C2.49605 41.884 2.28678 41.8046 2.07707 41.8046C1.86736 41.8046 1.6581 41.884 1.49805 42.0431C1.17839 42.361 1.17839 42.8764 1.49805 43.1943L2.31604 44.0078H2.31693Z" fill="white"/>
<path d="M100.769 2.20317L99.9506 3.01662C99.6309 3.33451 99.6309 3.84992 99.9506 4.16781C100.27 4.4857 100.789 4.4857 101.108 4.16781L101.926 3.35435L102.744 4.16781C103.064 4.4857 103.582 4.4857 103.902 4.16781C104.221 3.84992 104.221 3.33451 103.902 3.01662L103.084 2.20317L103.902 1.38971C104.221 1.07182 104.221 0.556413 103.902 0.238526C103.742 0.0793616 103.532 0 103.323 0C103.113 0 102.904 0.0793616 102.744 0.238526L101.926 1.05198L101.108 0.238526C100.948 0.0793616 100.738 0 100.529 0C100.319 0 100.11 0.0793616 99.9497 0.238526C99.63 0.556413 99.63 1.07182 99.9497 1.38971L100.768 2.20317H100.769Z" fill="white"/>
<path d="M85.7924 117.244C87.1109 117.244 88.1838 118.311 88.1838 119.622C88.1838 120.933 87.1109 122 85.7924 122C84.4738 122 83.4009 120.933 83.4009 119.622C83.4009 118.311 84.4738 117.244 85.7924 117.244ZM85.7924 120.372C86.2082 120.372 86.5465 120.035 86.5465 119.622C86.5465 119.208 86.2082 118.872 85.7924 118.872C85.3765 118.872 85.0382 119.208 85.0382 119.622C85.0382 120.035 85.3765 120.372 85.7924 120.372Z" fill="white"/>
<path d="M130.864 41.4634C132.183 41.4634 133.256 42.5303 133.256 43.8416C133.256 45.1528 132.183 46.2198 130.864 46.2198C129.546 46.2198 128.473 45.1528 128.473 43.8416C128.473 42.5303 129.546 41.4634 130.864 41.4634ZM130.864 44.5915C131.28 44.5915 131.619 44.2551 131.619 43.8416C131.619 43.428 131.28 43.0916 130.864 43.0916C130.449 43.0916 130.11 43.428 130.11 43.8416C130.11 44.2551 130.449 44.5915 130.864 44.5915Z" fill="white"/>
<path d="M30.7516 3.29527C32.0701 3.29527 33.1431 4.36225 33.1431 5.67348C33.1431 6.98471 32.0701 8.05168 30.7516 8.05168C29.433 8.05168 28.3601 6.98471 28.3601 5.67348C28.3601 4.36225 29.433 3.29527 30.7516 3.29527ZM30.7516 6.42344C31.1675 6.42344 31.5057 6.08704 31.5057 5.67348C31.5057 5.25991 31.1675 4.92351 30.7516 4.92351C30.3357 4.92351 29.9974 5.25991 29.9974 5.67348C29.9974 6.08704 30.3357 6.42344 30.7516 6.42344Z" fill="white"/>
<path d="M2.89148 77.5491C4.21003 77.5491 5.28295 78.6161 5.28295 79.9273C5.28295 81.2385 4.21003 82.3055 2.89148 82.3055C1.57293 82.3055 0.5 81.2385 0.5 79.9273C0.5 78.6161 1.57293 77.5491 2.89148 77.5491ZM2.89148 80.6773C3.30735 80.6773 3.64563 80.3409 3.64563 79.9273C3.64563 79.5137 3.30735 79.1773 2.89148 79.1773C2.47561 79.1773 2.13732 79.5137 2.13732 79.9273C2.13732 80.3409 2.47561 80.6773 2.89148 80.6773Z" fill="white"/>
<path d="M140.127 98.5843L139.309 99.3978C138.989 99.7157 138.989 100.231 139.309 100.549C139.629 100.867 140.147 100.867 140.467 100.549L141.285 99.7355L142.103 100.549C142.422 100.867 142.941 100.867 143.26 100.549C143.58 100.231 143.58 99.7157 143.26 99.3978L142.442 98.5843L143.26 97.7709C143.58 97.453 143.58 96.9376 143.26 96.6197C143.1 96.4605 142.891 96.3812 142.681 96.3812C142.471 96.3812 142.262 96.4605 142.102 96.6197L141.284 97.4332L140.466 96.6197C140.306 96.4605 140.097 96.3812 139.887 96.3812C139.677 96.3812 139.468 96.4605 139.308 96.6197C138.988 96.9376 138.988 97.453 139.308 97.7709L140.126 98.5843H140.127Z" fill="#007AFF"/>
<path d="M23.2461 116.11L22.4281 116.923C22.1085 117.241 22.1085 117.756 22.4281 118.074C22.7478 118.392 23.2661 118.392 23.5857 118.074L24.4037 117.261L25.2217 118.074C25.5414 118.392 26.0597 118.392 26.3793 118.074C26.699 117.756 26.699 117.241 26.3793 116.923L25.5613 116.11L26.3793 115.296C26.699 114.978 26.699 114.463 26.3793 114.145C26.2193 113.986 26.01 113.906 25.8003 113.906C25.5906 113.906 25.3813 113.986 25.2213 114.145L24.4033 114.958L23.5853 114.145C23.4252 113.986 23.216 113.906 23.0063 113.906C22.7966 113.906 22.5873 113.986 22.4272 114.145C22.1076 114.463 22.1076 114.978 22.4272 115.296L23.2452 116.11H23.2461Z" fill="#007AFF"/>
<path d="M2.31693 44.0078L1.49893 44.8212C1.17927 45.1391 1.17927 45.6545 1.49893 45.9724C1.8186 46.2903 2.33688 46.2903 2.65654 45.9724L3.47454 45.159L4.29254 45.9724C4.6122 46.2903 5.13048 46.2903 5.45015 45.9724C5.76981 45.6545 5.76981 45.1391 5.45015 44.8212L4.63215 44.0078L5.45015 43.1943C5.76981 42.8764 5.76981 42.361 5.45015 42.0431C5.29009 41.884 5.08083 41.8046 4.87112 41.8046C4.66141 41.8046 4.45215 41.884 4.29209 42.0431L3.4741 42.8566L2.6561 42.0431C2.49605 41.884 2.28678 41.8046 2.07707 41.8046C1.86736 41.8046 1.6581 41.884 1.49805 42.0431C1.17839 42.361 1.17839 42.8764 1.49805 43.1943L2.31604 44.0078H2.31693Z" fill="#007AFF"/>
<path d="M100.769 2.20317L99.9506 3.01662C99.6309 3.33451 99.6309 3.84992 99.9506 4.16781C100.27 4.4857 100.789 4.4857 101.108 4.16781L101.926 3.35435L102.744 4.16781C103.064 4.4857 103.582 4.4857 103.902 4.16781C104.221 3.84992 104.221 3.33451 103.902 3.01662L103.084 2.20317L103.902 1.38971C104.221 1.07182 104.221 0.556413 103.902 0.238526C103.742 0.0793616 103.532 0 103.323 0C103.113 0 102.904 0.0793616 102.744 0.238526L101.926 1.05198L101.108 0.238526C100.948 0.0793616 100.738 0 100.529 0C100.319 0 100.11 0.0793616 99.9497 0.238526C99.63 0.556413 99.63 1.07182 99.9497 1.38971L100.768 2.20317H100.769Z" fill="#007AFF"/>
<path d="M85.7924 117.244C87.1109 117.244 88.1838 118.311 88.1838 119.622C88.1838 120.933 87.1109 122 85.7924 122C84.4738 122 83.4009 120.933 83.4009 119.622C83.4009 118.311 84.4738 117.244 85.7924 117.244ZM85.7924 120.372C86.2082 120.372 86.5465 120.035 86.5465 119.622C86.5465 119.208 86.2082 118.872 85.7924 118.872C85.3765 118.872 85.0382 119.208 85.0382 119.622C85.0382 120.035 85.3765 120.372 85.7924 120.372Z" fill="#007AFF"/>
<path d="M130.864 41.4634C132.183 41.4634 133.256 42.5303 133.256 43.8416C133.256 45.1528 132.183 46.2198 130.864 46.2198C129.546 46.2198 128.473 45.1528 128.473 43.8416C128.473 42.5303 129.546 41.4634 130.864 41.4634ZM130.864 44.5915C131.28 44.5915 131.619 44.2551 131.619 43.8416C131.619 43.428 131.28 43.0916 130.864 43.0916C130.449 43.0916 130.11 43.428 130.11 43.8416C130.11 44.2551 130.449 44.5915 130.864 44.5915Z" fill="#007AFF"/>
<path d="M30.7516 3.29527C32.0701 3.29527 33.1431 4.36225 33.1431 5.67348C33.1431 6.98471 32.0701 8.05168 30.7516 8.05168C29.433 8.05168 28.3601 6.98471 28.3601 5.67348C28.3601 4.36225 29.433 3.29527 30.7516 3.29527ZM30.7516 6.42344C31.1675 6.42344 31.5057 6.08704 31.5057 5.67348C31.5057 5.25991 31.1675 4.92351 30.7516 4.92351C30.3357 4.92351 29.9974 5.25991 29.9974 5.67348C29.9974 6.08704 30.3357 6.42344 30.7516 6.42344Z" fill="#007AFF"/>
<path d="M2.89148 77.5491C4.21003 77.5491 5.28295 78.6161 5.28295 79.9273C5.28295 81.2385 4.21003 82.3055 2.89148 82.3055C1.57293 82.3055 0.5 81.2385 0.5 79.9273C0.5 78.6161 1.57293 77.5491 2.89148 77.5491ZM2.89148 80.6773C3.30735 80.6773 3.64563 80.3409 3.64563 79.9273C3.64563 79.5137 3.30735 79.1773 2.89148 79.1773C2.47561 79.1773 2.13732 79.5137 2.13732 79.9273C2.13732 80.3409 2.47561 80.6773 2.89148 80.6773Z" fill="#007AFF"/>
</svg>
